<svg width="25" height="24" viewBox="0 0 25 24" fill="none" xmlns="http://www.w3.org/2000/svg">
<g id="message" opacity="0.6">
<path id="Rectangle 192 (Stroke)" fill-rule="evenodd" clip-rule="evenodd" d="M8.03801 17.8476C8.30759 17.623 8.64739 17.4999 8.99829 17.4999H19.9983C20.8267 17.4999 21.4983 16.8284 21.4983 15.9999V5.99994C21.4983 5.17151 20.8267 4.49994 19.9983 4.49994H5.99829C5.16986 4.49994 4.49829 5.17151 4.49829 5.99994V19.7299C4.49829 20.1538 4.99272 20.3854 5.31838 20.114L8.03801 17.8476ZM8.99829 18.9999H19.9983C21.6551 18.9999 22.9983 17.6568 22.9983 15.9999V5.99994C22.9983 4.34308 21.6551 2.99994 19.9983 2.99994H5.99829C4.34144 2.99994 2.99829 4.34308 2.99829 5.99994V19.7299C2.99829 21.4255 4.976 22.3518 6.27866 21.2663L8.99829 18.9999Z" fill="black"/>
<path id="Vector 409 (Stroke)" fill-rule="evenodd" clip-rule="evenodd" d="M8.24829 8.99994C8.24829 8.58573 8.58408 8.24994 8.99829 8.24994H16.9983C17.4125 8.24994 17.7483 8.58573 17.7483 8.99994C17.7483 9.41415 17.4125 9.74994 16.9983 9.74994H8.99829C8.58408 9.74994 8.24829 9.41415 8.24829 8.99994Z" fill="black"/>
<path id="Vector 410 (Stroke)" fill-rule="evenodd" clip-rule="evenodd" d="M8.24829 12.9999C8.24829 12.5857 8.58408 12.2499 8.99829 12.2499H12.9983C13.4125 12.2499 13.7483 12.5857 13.7483 12.9999C13.7483 13.4142 13.4125 13.7499 12.9983 13.7499H8.99829C8.58408 13.7499 8.24829 13.4142 8.24829 12.9999Z" fill="black"/>
</g>
</svg>
