<svg width="18" height="20" viewBox="0 0 18 20" fill="none" xmlns="http://www.w3.org/2000/svg">
<path id="icon" d="M13.2722 4.00794C13.6191 4.60138 14.263 5.00003 15 5.00003C16.1046 5.00003 17 4.1046 17 3.00003C17 1.89546 16.1046 1.00003 15 1.00003C13.8954 1.00003 13 1.89546 13 3.00003C13 3.36759 13.0991 3.71198 13.2722 4.00794ZM13.2722 4.00794L4.72784 8.99213M4.72784 8.99213C4.38092 8.39869 3.73701 8.00003 3 8.00003C1.89543 8.00003 1 8.89546 1 10C1 11.1046 1.89543 12 3 12C3.73701 12 4.38092 11.6014 4.72784 11.0079M4.72784 8.99213C4.90085 9.28808 5 9.63248 5 10C5 10.3676 4.90085 10.712 4.72784 11.0079M4.72784 11.0079L13.2722 15.9921M13.2722 15.9921C13.6191 15.3987 14.263 15 15 15C16.1046 15 17 15.8955 17 17C17 18.1046 16.1046 19 15 19C13.8954 19 13 18.1046 13 17C13 16.6325 13.0991 16.2881 13.2722 15.9921Z" stroke="#9698AB" stroke-width="2" stroke-linecap="round" stroke-linejoin="round"/>
</svg>
