<svg width="25" height="24" viewBox="0 0 25 24" fill="none" xmlns="http://www.w3.org/2000/svg">
<g id="User/Person" opacity="0.6">
<g id="User-Outline">
<path id="Shape" fill-rule="evenodd" clip-rule="evenodd" d="M20.5783 16.7099L20.8183 17.8499C21.0457 18.8355 20.8211 19.8712 20.2059 20.6741C19.5907 21.477 18.6491 21.9632 17.6383 21.9999H8.35826C7.34744 21.9632 6.40583 21.477 5.79061 20.6741C5.17539 19.8712 4.95083 18.8355 5.17826 17.8499L5.41826 16.7099C5.6943 15.1667 7.02089 14.0326 8.58826 13.9999H17.4083C18.9756 14.0326 20.3022 15.1667 20.5783 16.7099ZM17.6383 20.4899C18.1461 20.484 18.6239 20.2488 18.9383 19.8499V19.8599C19.324 19.3761 19.4742 18.7457 19.3483 18.1399L19.1083 16.9999C18.9751 16.1551 18.2629 15.5225 17.4083 15.4899H8.58827C7.73363 15.5225 7.02143 16.1551 6.88827 16.9999L6.64827 18.1399C6.52542 18.7425 6.67553 19.3686 7.05827 19.8499C7.3726 20.2488 7.85048 20.484 8.35827 20.4899H17.6383Z" fill="black"/>
<path id="Shape_2" fill-rule="evenodd" clip-rule="evenodd" d="M13.4983 11.9999H12.4983C10.2891 11.9999 8.49826 10.2091 8.49826 7.99994V5.35994C8.49559 4.468 8.84874 3.61182 9.47944 2.98112C10.1101 2.35041 10.9663 1.99727 11.8583 1.99994H14.1383C15.0302 1.99727 15.8864 2.35041 16.5171 2.98112C17.1478 3.61182 17.5009 4.468 17.4983 5.35994V7.99994C17.4983 10.2091 15.7074 11.9999 13.4983 11.9999ZM11.8583 3.49994C10.831 3.49994 9.99826 4.33269 9.99826 5.35994V7.99994C9.99826 9.38065 11.1175 10.4999 12.4983 10.4999H13.4983C14.879 10.4999 15.9983 9.38065 15.9983 7.99994V5.35994C15.9983 4.86664 15.8023 4.39354 15.4535 4.04472C15.1047 3.6959 14.6316 3.49994 14.1383 3.49994H11.8583Z" fill="black"/>
</g>
</g>
</svg>
