<svg width="18" height="5" viewBox="0 0 18 5" fill="none" xmlns="http://www.w3.org/2000/svg">
<path id="Vector" d="M1.85209 0.888031C0.900638 0.888031 0.130005 1.65866 0.130005 2.61012C0.130005 3.56157 0.900638 4.3322 1.85209 4.3322C2.80354 4.3322 3.57417 3.56157 3.57417 2.61012C3.57417 1.65866 2.80354 0.888031 1.85209 0.888031ZM8.74043 0.888031C7.78898 0.888031 7.01834 1.65866 7.01834 2.61012C7.01834 3.56157 7.78898 4.3322 8.74043 4.3322C9.69188 4.3322 10.4625 3.56157 10.4625 2.61012C10.4625 1.65866 9.69188 0.888031 8.74043 0.888031ZM15.6288 0.888031C14.6773 0.888031 13.9067 1.65866 13.9067 2.61012C13.9067 3.56157 14.6773 4.3322 15.6288 4.3322C16.5802 4.3322 17.3508 3.56157 17.3508 2.61012C17.3508 1.65866 16.5802 0.888031 15.6288 0.888031Z" fill="white"/>
</svg>
