<svg width="223" height="38" viewBox="0 0 223 38" fill="none" xmlns="http://www.w3.org/2000/svg">
<g id="bars" opacity="0.4">
<rect id="Rectangle" x="0.997681" y="9.91245" width="1.80208" height="28.0868" rx="0.901041" fill="white"/>
<rect id="Rectangle_2" x="45.8609" y="9.91245" width="1.80208" height="28.0868" rx="0.901041" fill="white"/>
<rect id="Rectangle_3" x="90.7242" y="9.91245" width="1.80208" height="28.0868" rx="0.901041" fill="white"/>
<rect id="Rectangle_4" x="135.587" y="9.91245" width="1.80208" height="28.0868" rx="0.901041" fill="white"/>
<rect id="Rectangle_5" x="180.451" y="9.91245" width="1.80208" height="28.0868" rx="0.901041" fill="white"/>
<rect id="Rectangle Copy 7" x="31.5559" y="9.91245" width="1.80208" height="28.0868" rx="0.901041" fill="white"/>
<rect id="Rectangle Copy 12" x="76.4192" y="9.91245" width="1.80208" height="28.0868" rx="0.901041" fill="white"/>
<rect id="Rectangle Copy 19" x="121.282" y="9.91245" width="1.80208" height="28.0868" rx="0.901041" fill="white"/>
<rect id="Rectangle Copy 26" x="166.146" y="9.91245" width="1.80208" height="28.0868" rx="0.901041" fill="white"/>
<rect id="Rectangle Copy 33" x="211.009" y="9.91245" width="1.80208" height="28.0868" rx="0.901041" fill="white"/>
<rect id="Rectangle Copy 3" x="16.2777" y="-0.000152588" width="1.80208" height="37.9998" rx="0.901041" fill="white"/>
<rect id="Rectangle Copy 13" x="61.141" y="-0.000152588" width="1.80208" height="37.9998" rx="0.901041" fill="white"/>
<rect id="Rectangle Copy 20" x="106.004" y="-0.000152588" width="1.80208" height="37.9998" rx="0.901041" fill="white"/>
<rect id="Rectangle Copy 27" x="150.867" y="-0.000152588" width="1.80208" height="37.9998" rx="0.901041" fill="white"/>
<rect id="Rectangle Copy 34" x="195.731" y="-0.000152588" width="1.80208" height="37.9998" rx="0.901041" fill="white"/>
<rect id="Rectangle Copy" x="6.091" y="20.6515" width="1.80208" height="17.3477" rx="0.901041" fill="white"/>
<rect id="Rectangle Copy_2" x="50.9543" y="20.6515" width="1.80208" height="17.3477" rx="0.901041" fill="white"/>
<rect id="Rectangle Copy_3" x="95.8175" y="20.6515" width="1.80208" height="17.3477" rx="0.901041" fill="white"/>
<rect id="Rectangle Copy_4" x="140.681" y="20.6515" width="1.80208" height="17.3477" rx="0.901041" fill="white"/>
<rect id="Rectangle Copy_5" x="185.544" y="20.6515" width="1.80208" height="17.3477" rx="0.901041" fill="white"/>
<rect id="Rectangle Copy 9" x="36.6493" y="20.6515" width="1.80208" height="17.3477" rx="0.901041" fill="white"/>
<rect id="Rectangle Copy 14" x="81.5125" y="20.6515" width="1.80208" height="17.3477" rx="0.901041" fill="white"/>
<rect id="Rectangle Copy 21" x="126.376" y="20.6515" width="1.80208" height="17.3477" rx="0.901041" fill="white"/>
<rect id="Rectangle Copy 28" x="171.239" y="20.6515" width="1.80208" height="17.3477" rx="0.901041" fill="white"/>
<rect id="Rectangle Copy 35" x="216.102" y="20.6515" width="1.80208" height="17.3477" rx="0.901041" fill="white"/>
<rect id="Rectangle Copy 5" x="21.3711" y="10.7386" width="1.80208" height="27.2607" rx="0.901041" fill="white"/>
<rect id="Rectangle Copy 15" x="66.2343" y="10.7386" width="1.80208" height="27.2607" rx="0.901041" fill="white"/>
<rect id="Rectangle Copy 22" x="111.098" y="10.7386" width="1.80208" height="27.2607" rx="0.901041" fill="white"/>
<rect id="Rectangle Copy 29" x="155.961" y="10.7386" width="1.80208" height="27.2607" rx="0.901041" fill="white"/>
<rect id="Rectangle Copy 36" x="200.824" y="10.7386" width="1.80208" height="27.2607" rx="0.901041" fill="white"/>
<rect id="Rectangle Copy 2" x="11.1844" y="25.6082" width="1.80208" height="12.3912" rx="0.901041" fill="white"/>
<rect id="Rectangle Copy 16" x="56.0476" y="25.6082" width="1.80208" height="12.3912" rx="0.901041" fill="white"/>
<rect id="Rectangle Copy 23" x="100.911" y="25.6082" width="1.80208" height="12.3912" rx="0.901041" fill="white"/>
<rect id="Rectangle Copy 30" x="145.774" y="25.6082" width="1.80208" height="12.3912" rx="0.901041" fill="white"/>
<rect id="Rectangle Copy 37" x="190.637" y="25.6082" width="1.80208" height="12.3912" rx="0.901041" fill="white"/>
<rect id="Rectangle Copy 11" x="41.7426" y="25.6082" width="1.80208" height="12.3912" rx="0.901041" fill="white"/>
<rect id="Rectangle Copy 17" x="86.6058" y="25.6082" width="1.80208" height="12.3912" rx="0.901041" fill="white"/>
<rect id="Rectangle Copy 24" x="131.469" y="25.6082" width="1.80208" height="12.3912" rx="0.901041" fill="white"/>
<rect id="Rectangle Copy 31" x="176.332" y="25.6082" width="1.80208" height="12.3912" rx="0.901041" fill="white"/>
<rect id="Rectangle Copy 38" x="221.196" y="25.6082" width="1.80208" height="12.3912" rx="0.901041" fill="white"/>
<rect id="Rectangle Copy 6" x="26.4607" y="4.95639" width="1.80208" height="33.0433" rx="0.901041" fill="white"/>
<rect id="Rectangle Copy 18" x="71.324" y="4.95639" width="1.80208" height="33.0433" rx="0.901041" fill="white"/>
<rect id="Rectangle Copy 25" x="116.187" y="4.95639" width="1.80208" height="33.0433" rx="0.901041" fill="white"/>
<rect id="Rectangle Copy 32" x="161.05" y="4.95639" width="1.80208" height="33.0433" rx="0.901041" fill="white"/>
<rect id="Rectangle Copy 39" x="205.914" y="4.95639" width="1.80208" height="33.0433" rx="0.901041" fill="white"/>
</g>
</svg>
