<svg width="22" height="20" viewBox="0 0 22 20" fill="none" xmlns="http://www.w3.org/2000/svg">
<g id="Vector">
<mask id="path-1-inside-1_65_18" fill="white">
<path d="M4.71127 9.42255V10.6447L6.35739 10.0964C7.75378 9.63102 9.26837 9.66432 10.643 10.1907L10.8984 10.2949L13.9899 11.6351C14.6922 11.9395 15.1518 12.5717 15.2667 13.2754L15.6606 13.0992C16.4279 12.7515 17.4449 12.2681 18.6992 11.6534C19.8309 11.0989 21.1979 11.5607 21.7616 12.6878C22.2951 13.7549 21.9028 15.0428 20.8892 15.6383L20.7109 15.7327L12.9336 19.4192C12.4541 19.6464 11.9297 19.7628 11.3991 19.7596C10.8686 19.7565 10.3456 19.6339 9.86889 19.4009L9.67884 19.3008L6.11768 17.2839C5.85277 17.1338 5.55865 17.0426 5.25533 17.0164L5.07291 17.0085L4.71127 17.0077V18.374H0V9.42255H4.71127ZM7.03676 11.3661L6.8043 11.4373L4.71127 12.1344V15.5943L5.07291 15.5952C5.60598 15.5952 6.13214 15.7158 6.61199 15.9479L6.81429 16.054L10.3754 18.0709C10.6461 18.2243 10.9472 18.3162 11.2574 18.34C11.5677 18.3639 11.8793 18.3192 12.1703 18.2092L12.3283 18.142L20.1214 14.4478C20.3208 14.3481 20.4724 14.1732 20.5429 13.9617C20.6134 13.7502 20.597 13.5193 20.4973 13.3199C20.3933 13.1119 20.2113 12.9535 19.991 12.8791C19.7707 12.8047 19.5299 12.8203 19.3211 12.9226L17.9272 13.5988L16.8333 14.1161C15.9187 14.5414 15.2462 14.8326 14.8051 14.9933C14.245 15.678 13.3003 15.9639 12.4344 15.6635L12.2966 15.6104L8.45721 13.9807L9.00937 12.6796L12.8489 14.3094C12.9385 14.3474 13.0348 14.3675 13.1322 14.3683C13.2295 14.3692 13.3261 14.3508 13.4164 14.3144C13.5067 14.2779 13.589 14.224 13.6584 14.1557C13.7279 14.0875 13.7832 14.0062 13.8213 13.9165C13.892 13.7499 13.9003 13.5633 13.8447 13.3911C13.789 13.2188 13.6732 13.0723 13.5183 12.9785L13.4278 12.9319L10.3362 11.5916C9.29486 11.1402 8.12989 11.0605 7.03676 11.3661ZM3.29695 10.8359H1.41244V16.9606H3.29695V10.8359ZM14.0404 0C16.6946 0 18.8451 2.15117 18.8451 4.80635C18.8451 7.4604 16.694 9.61269 14.0404 9.61269C11.3866 9.61269 9.23409 7.46021 9.23409 4.80625C9.23409 2.15192 11.3854 0 14.0404 0ZM14.0404 1.41338C12.1661 1.41338 10.6475 2.93248 10.6475 4.80635C10.6475 6.67955 12.1671 8.19931 14.0404 8.19931C15.9133 8.19931 17.4317 6.68002 17.4317 4.80625C17.4317 2.93164 15.9139 1.41338 14.0404 1.41338Z"/>
</mask>
<path d="M4.71127 9.42255H6.71127V7.42255H4.71127V9.42255ZM4.71127 10.6447H2.71127V13.4187L5.34321 12.5422L4.71127 10.6447ZM6.35739 10.0964L6.98932 11.994L6.98981 11.9938L6.35739 10.0964ZM10.643 10.1907L11.3984 8.33885L11.3784 8.33067L11.3582 8.32292L10.643 10.1907ZM10.8984 10.2949L11.6939 8.4599L11.674 8.45127L11.6539 8.44306L10.8984 10.2949ZM13.9899 11.6351L13.1944 13.4701L13.1946 13.4702L13.9899 11.6351ZM15.2667 13.2754L13.2928 13.5976L13.7114 16.1622L16.0834 15.1011L15.2667 13.2754ZM15.6606 13.0992L16.4773 14.9249L16.486 14.921L15.6606 13.0992ZM18.6992 11.6534L17.8192 9.85745L17.8192 9.85745L18.6992 11.6534ZM21.7616 12.6878L23.5504 11.7935L23.5503 11.7933L21.7616 12.6878ZM20.8892 15.6383L21.8252 17.4058L21.8643 17.3851L21.9023 17.3627L20.8892 15.6383ZM20.7109 15.7327L21.5676 17.54L21.6077 17.521L21.647 17.5002L20.7109 15.7327ZM12.9336 19.4192L13.7902 21.2265L13.7902 21.2265L12.9336 19.4192ZM9.86889 19.4009L8.93643 21.1703L8.96341 21.1845L8.99081 21.1979L9.86889 19.4009ZM9.67884 19.3008L8.69322 21.041L8.71958 21.056L8.74638 21.0701L9.67884 19.3008ZM6.11768 17.2839L5.13196 19.0241L5.13206 19.0241L6.11768 17.2839ZM5.25533 17.0164L5.42754 15.0238L5.38433 15.0201L5.341 15.0182L5.25533 17.0164ZM5.07291 17.0085L5.15858 15.0104L5.11811 15.0086L5.0776 15.0085L5.07291 17.0085ZM4.71127 17.0077L4.71596 15.0077L2.71127 15.003V17.0077H4.71127ZM4.71127 18.374V20.374H6.71127V18.374H4.71127ZM0 18.374H-2V20.374H0V18.374ZM0 9.42255V7.42255H-2V9.42255H0ZM7.03676 11.3661L6.49828 9.43999L6.4748 9.44655L6.45148 9.45369L7.03676 11.3661ZM6.8043 11.4373L6.21902 9.52483L6.19559 9.532L6.17233 9.53975L6.8043 11.4373ZM4.71127 12.1344L4.0793 10.2368L2.71127 10.6924V12.1344H4.71127ZM4.71127 15.5943H2.71127V17.5896L4.70658 17.5943L4.71127 15.5943ZM5.07291 15.5952L5.06822 17.5952L5.07294 17.5952L5.07291 15.5952ZM6.61199 15.9479L7.5409 14.1767L7.51224 14.1617L7.48311 14.1476L6.61199 15.9479ZM6.81429 16.054L7.79993 14.3138L7.77182 14.2979L7.7432 14.2828L6.81429 16.054ZM10.3754 18.0709L11.3611 16.3307L11.361 16.3307L10.3754 18.0709ZM12.1703 18.2092L12.878 20.0798L12.9159 20.0654L12.9533 20.0495L12.1703 18.2092ZM12.3283 18.142L13.1112 19.9824L13.1484 19.9665L13.185 19.9492L12.3283 18.142ZM20.1214 14.4478L20.9781 16.255L20.997 16.246L21.0158 16.2366L20.1214 14.4478ZM20.4973 13.3199L22.2862 12.4255L22.2861 12.4252L20.4973 13.3199ZM19.3211 12.9226L20.194 14.7221L20.2011 14.7186L19.3211 12.9226ZM17.9272 13.5988L18.7822 15.4069L18.7912 15.4026L18.8001 15.3983L17.9272 13.5988ZM16.8333 14.1161L17.6767 15.9296L17.6882 15.9242L16.8333 14.1161ZM14.8051 14.9933L14.1204 13.1142L13.6046 13.3021L13.2571 13.727L14.8051 14.9933ZM12.4344 15.6635L11.7156 17.5299L11.7471 17.542L11.7789 17.553L12.4344 15.6635ZM12.2966 15.6104L11.5152 17.4514L11.5463 17.4647L11.5779 17.4768L12.2966 15.6104ZM8.45721 13.9807L6.61614 13.1994L5.83486 15.0403L7.67575 15.8217L8.45721 13.9807ZM9.00937 12.6796L9.79081 10.8386L7.94968 10.0571L7.1683 11.8983L9.00937 12.6796ZM12.8489 14.3094L13.6305 12.4684L13.6303 12.4683L12.8489 14.3094ZM13.8213 13.9165L15.6623 14.698L15.6624 14.6978L13.8213 13.9165ZM13.5183 12.9785L14.5547 11.268L14.4956 11.2322L14.4342 11.2005L13.5183 12.9785ZM13.4278 12.9319L14.3436 11.1539L14.2844 11.1234L14.2233 11.0969L13.4278 12.9319ZM10.3362 11.5916L11.1318 9.75663L11.1318 9.75663L10.3362 11.5916ZM3.29695 10.8359H5.29695V8.83593H3.29695V10.8359ZM1.41244 10.8359V8.83593H-0.587561V10.8359H1.41244ZM1.41244 16.9606H-0.587561V18.9606H1.41244V16.9606ZM3.29695 16.9606V18.9606H5.29695V16.9606H3.29695ZM2.71127 9.42255V10.6447H6.71127V9.42255H2.71127ZM5.34321 12.5422L6.98932 11.994L5.72546 8.19891L4.07934 8.74711L5.34321 12.5422ZM6.98981 11.9938C7.9471 11.6748 8.98542 11.6976 9.92775 12.0584L11.3582 8.32292C9.55133 7.63105 7.56046 7.58728 5.72498 8.19907L6.98981 11.9938ZM9.88747 12.0425L10.1429 12.1467L11.6539 8.44306L11.3984 8.33885L9.88747 12.0425ZM10.1029 12.1299L13.1944 13.4701L14.7854 9.80017L11.6939 8.4599L10.1029 12.1299ZM13.1946 13.4702C13.2245 13.4832 13.2443 13.5 13.2594 13.5198C13.2763 13.5419 13.2882 13.5692 13.2928 13.5976L17.2406 12.9533C17.0206 11.6057 16.1381 10.3864 14.7852 9.80007L13.1946 13.4702ZM16.0834 15.1011L16.4773 14.9249L14.8438 11.2736L14.45 11.4498L16.0834 15.1011ZM16.486 14.921C17.2792 14.5615 18.3162 14.0683 19.5793 13.4494L17.8192 9.85745C16.5736 10.4678 15.5767 10.9415 14.8351 11.2775L16.486 14.921ZM19.5793 13.4494C19.7246 13.3782 19.9003 13.4374 19.9728 13.5824L23.5503 11.7933C22.4955 9.68399 19.9372 8.81963 17.8192 9.85745L19.5793 13.4494ZM19.9727 13.5822C20.0325 13.7018 19.9887 13.8477 19.8761 13.9139L21.9023 17.3627C23.8169 16.2379 24.5577 13.8081 23.5504 11.7935L19.9727 13.5822ZM19.9532 13.8709L19.7749 13.9653L21.647 17.5002L21.8252 17.4058L19.9532 13.8709ZM19.8543 13.9255L12.0769 17.612L13.7902 21.2265L21.5676 17.54L19.8543 13.9255ZM12.077 17.6119C11.8689 17.7105 11.6413 17.761 11.4111 17.7597L11.3872 21.7596C12.2181 21.7645 13.0394 21.5823 13.7902 21.2265L12.077 17.6119ZM11.4111 17.7597C11.1808 17.7583 10.9539 17.7051 10.747 17.604L8.99081 21.1979C9.73731 21.5626 10.5564 21.7546 11.3872 21.7596L11.4111 17.7597ZM10.8013 17.6316L10.6113 17.5314L8.74638 21.0701L8.93643 21.1703L10.8013 17.6316ZM10.6645 17.5605L7.1033 15.5436L5.13206 19.0241L8.69322 21.041L10.6645 17.5605ZM7.1034 15.5437C6.58859 15.252 6.01701 15.0747 5.42754 15.0238L5.08312 19.0089C5.1003 19.0104 5.11696 19.0156 5.13196 19.0241L7.1034 15.5437ZM5.341 15.0182L5.15858 15.0104L4.98724 19.0067L5.16966 19.0145L5.341 15.0182ZM5.0776 15.0085L4.71596 15.0077L4.70658 19.0077L5.06822 19.0085L5.0776 15.0085ZM2.71127 17.0077V18.374H6.71127V17.0077H2.71127ZM4.71127 16.374H0V20.374H4.71127V16.374ZM2 18.374V9.42255H-2V18.374H2ZM0 11.4225H4.71127V7.42255H0V11.4225ZM6.45148 9.45369L6.21902 9.52483L7.38958 13.3497L7.62204 13.2786L6.45148 9.45369ZM6.17233 9.53975L4.0793 10.2368L5.34324 14.0319L7.43627 13.3348L6.17233 9.53975ZM2.71127 12.1344V15.5943H6.71127V12.1344H2.71127ZM4.70658 17.5943L5.06822 17.5952L5.0776 13.5952L4.71596 13.5943L4.70658 17.5943ZM5.07294 17.5952C5.30428 17.5952 5.53262 17.6475 5.74087 17.7483L7.48311 14.1476C6.73166 13.784 5.90768 13.5951 5.07288 13.5952L5.07294 17.5952ZM5.68308 17.7191L5.88538 17.8252L7.7432 14.2828L7.5409 14.1767L5.68308 17.7191ZM5.82865 17.7943L9.38971 19.8112L11.361 16.3307L7.79993 14.3138L5.82865 17.7943ZM9.38965 19.8112C9.91577 20.1092 10.501 20.2877 11.1039 20.3341L11.411 16.3459C11.3934 16.3446 11.3764 16.3394 11.3611 16.3307L9.38965 19.8112ZM11.1039 20.3341C11.7068 20.3806 12.3124 20.2937 12.878 20.0798L11.4627 16.3385C11.4462 16.3448 11.4286 16.3473 11.411 16.3459L11.1039 20.3341ZM12.9533 20.0495L13.1112 19.9824L11.5453 16.3016L11.3874 16.3688L12.9533 20.0495ZM13.185 19.9492L20.9781 16.255L19.2647 12.6405L11.4716 16.3348L13.185 19.9492ZM21.0158 16.2366C21.6897 15.8997 22.2021 15.3089 22.4403 14.5942L18.6456 13.3292C18.7428 13.0376 18.9519 12.7964 19.2269 12.6589L21.0158 16.2366ZM22.4403 14.5942C22.6785 13.8794 22.6231 13.0993 22.2862 12.4255L18.7085 14.2143C18.571 13.9393 18.5483 13.6209 18.6456 13.3292L22.4403 14.5942ZM22.2861 12.4252C21.946 11.7454 21.3511 11.2275 20.631 10.9842L19.3511 14.7739C19.0715 14.6795 18.8406 14.4785 18.7086 14.2146L22.2861 12.4252ZM20.631 10.9842C19.9108 10.741 19.1237 10.7922 18.4411 11.1266L20.2011 14.7186C19.9361 14.8485 19.6306 14.8683 19.3511 14.7739L20.631 10.9842ZM18.4482 11.1232L17.0543 11.7994L18.8001 15.3983L20.194 14.7221L18.4482 11.1232ZM17.0723 11.7908L15.9783 12.3081L17.6882 15.9242L18.7822 15.4069L17.0723 11.7908ZM15.9899 12.3026C15.0815 12.7251 14.4752 12.9849 14.1204 13.1142L15.4898 16.8725C16.0173 16.6803 16.7559 16.3578 17.6767 15.9296L15.9899 12.3026ZM13.2571 13.727C13.24 13.7478 13.2136 13.7665 13.1803 13.7761C13.1493 13.785 13.1197 13.7843 13.0898 13.7739L11.7789 17.553C13.453 18.1338 15.2725 17.5807 16.3531 16.2597L13.2571 13.727ZM13.1531 13.7971L13.0153 13.744L11.5779 17.4768L11.7156 17.5299L13.1531 13.7971ZM13.0781 13.7694L9.23866 12.1397L7.67575 15.8217L11.5152 17.4514L13.0781 13.7694ZM10.2983 14.762L10.8504 13.461L7.1683 11.8983L6.61614 13.1994L10.2983 14.762ZM8.22792 14.5207L12.0674 16.1504L13.6303 12.4683L9.79081 10.8386L8.22792 14.5207ZM12.0673 16.1503C12.3987 16.291 12.7545 16.3651 13.1146 16.3682L13.1497 12.3684C13.315 12.3698 13.4783 12.4038 13.6305 12.4684L12.0673 16.1503ZM13.1146 16.3682C13.4746 16.3714 13.8317 16.3036 14.1656 16.1688L12.6673 12.4599C12.8205 12.398 12.9845 12.3669 13.1497 12.3684L13.1146 16.3682ZM14.1656 16.1688C14.4994 16.0339 14.8034 15.8346 15.0602 15.5822L12.2566 12.7292C12.3745 12.6133 12.5141 12.5218 12.6673 12.4599L14.1656 16.1688ZM15.0602 15.5822C15.317 15.3299 15.5216 15.0294 15.6623 14.698L11.9803 13.1351C12.0448 12.9829 12.1388 12.845 12.2566 12.7292L15.0602 15.5822ZM15.6624 14.6978C15.9209 14.0885 15.9513 13.4063 15.7479 12.7764L11.9415 14.0057C11.8493 13.7203 11.863 13.4113 11.9802 13.1352L15.6624 14.6978ZM15.7479 12.7764C15.5444 12.1465 15.1208 11.611 14.5547 11.268L12.482 14.6891C12.2255 14.5337 12.0336 14.2911 11.9415 14.0057L15.7479 12.7764ZM14.4342 11.2005L14.3436 11.1539L12.512 14.7099L12.6025 14.7565L14.4342 11.2005ZM14.2233 11.0969L11.1318 9.75663L9.54074 13.4266L12.6323 14.7669L14.2233 11.0969ZM11.1318 9.75663C9.66933 9.12264 8.03336 9.01084 6.49828 9.43999L7.57523 13.2923C8.22641 13.1102 8.92039 13.1577 9.54074 13.4266L11.1318 9.75663ZM3.29695 8.83593H1.41244V12.8359H3.29695V8.83593ZM-0.587561 10.8359V16.9606H3.41244V10.8359H-0.587561ZM1.41244 18.9606H3.29695V14.9606H1.41244V18.9606ZM5.29695 16.9606V10.8359H1.29695V16.9606H5.29695ZM14.0404 2C15.5894 2 16.8451 3.2551 16.8451 4.80635H20.8451C20.8451 1.04724 17.7998 -2 14.0404 -2V2ZM16.8451 4.80635C16.8451 6.35662 15.5887 7.61269 14.0404 7.61269V11.6127C17.7994 11.6127 20.8451 8.56417 20.8451 4.80635H16.8451ZM14.0404 7.61269C12.4912 7.61269 11.2341 6.35566 11.2341 4.80625H7.23409C7.23409 8.56475 10.282 11.6127 14.0404 11.6127V7.61269ZM11.2341 4.80625C11.2341 3.25636 12.4901 2 14.0404 2V-2C10.2808 -2 7.23409 1.04748 7.23409 4.80625H11.2341ZM14.0404 -0.586618C11.0614 -0.586618 8.64748 1.8281 8.64748 4.80635H12.6475C12.6475 4.03687 13.2709 3.41338 14.0404 3.41338V-0.586618ZM8.64748 4.80635C8.64748 7.78408 11.0625 10.1993 14.0404 10.1993V6.19931C13.2717 6.19931 12.6475 5.57502 12.6475 4.80635H8.64748ZM14.0404 10.1993C17.0188 10.1993 19.4317 7.78358 19.4317 4.80625H15.4317C15.4317 5.57646 14.8077 6.19931 14.0404 6.19931V10.1993ZM19.4317 4.80625C19.4317 1.82786 17.0193 -0.586618 14.0404 -0.586618V3.41338C14.8086 3.41338 15.4317 4.03541 15.4317 4.80625H19.4317Z" fill="#9698AB" mask="url(#path-1-inside-1_65_18)"/>
</g>
</svg>
