<svg width="18" height="22" viewBox="0 0 18 22" fill="none" xmlns="http://www.w3.org/2000/svg">
<path id="Vector" d="M16.9022 1V0.75H16.6522H1.00201H0.752042L0.752013 0.999971L0.75 18.41L0.749987 18.5265L0.839239 18.6015L3.92379 21.1915L4.08455 21.3264L4.24531 21.1915L6.45532 19.3358L8.66535 21.1915L8.82611 21.3264L8.98686 21.1915L11.1969 19.3358L13.4069 21.1915L13.5677 21.3264L13.7284 21.1915L16.8129 18.6015L16.9022 18.5266V18.4101V1ZM2.67929 2.56788H14.9747V17.7107L13.5677 18.8922L11.3576 17.0365L11.1969 16.9015L11.0361 17.0365L8.8261 18.8922L6.61608 17.0365L6.45532 16.9015L6.29456 17.0365L4.08454 18.8922L2.67754 17.7108L2.67929 2.56788ZM9.08038 11.2252V10.9752H8.83038H4.54419H4.29419V11.2252V11.543V11.793H4.54419H8.83038H9.08038V11.543V11.2252ZM13.3609 8.58941V8.33941H13.1109H4.54324H4.29324V8.58941V8.9073V9.1573H4.54324H13.1109H13.3609V8.9073V8.58941ZM13.3609 5.95364V5.70364H13.1109H4.54324H4.29324V5.95364V6.27153V6.52153H4.54324H13.1109H13.3609V6.27153V5.95364Z" fill="#9698AB" stroke="#9698AB" stroke-width="0.5"/>
</svg>
