<svg width="20" height="20" viewBox="0 0 20 20" fill="none" xmlns="http://www.w3.org/2000/svg">
<path id="Vector" d="M15.8064 1V0.875H15.6814H9.55678H9.43178V1V2.25581V2.38081H9.55678H11.8659V4.21882L3.09302 4.2189L2.96802 4.2189V4.3439V7.25821L0.894083 10.5673L0.875 10.5977V10.6337V19.3644V19.4894H1H19H19.125V19.3644V10.6338V10.5978L19.1059 10.5674L17.032 7.25904V4.3439V4.2189L16.907 4.2189L13.3717 4.21882V2.38081H15.6814H15.8064V2.25581V1ZM4.45474 7.72264L4.47384 7.69218V7.65623V5.72463H15.5262V7.65623V7.69218L15.5453 7.72263L17.6192 11.0306V17.9834H2.38081V11.0297L4.45474 7.72264ZM15.1491 14.3953V14.2703H15.0241H4.9374H4.8124V14.3953V15.6512V15.7762H4.9374H15.0241H15.1491V15.6512V14.3953ZM7.61421 11.2435V11.1185H7.48921H5.7746H5.6496V11.2435V12.4993V12.6243H5.7746H7.48921H7.61421V12.4993V11.2435ZM10.963 11.2435V11.1185H10.838H9.12344H8.99844V11.2435V12.4993V12.6243H9.12344H10.838H10.963V12.4993V11.2435ZM14.3119 11.2435V11.1185H14.1869H12.4723H12.3473V11.2435V12.4993V12.6243H12.4723H14.1869H14.3119V12.4993V11.2435ZM10.963 8.31327V8.18827H10.838H9.12344H8.99844V8.31327V9.56909V9.69409H9.12344H10.838H10.963V9.56909V8.31327ZM7.61421 8.31327V8.18827H7.48921H5.7746H5.6496V8.31327V9.56909V9.69409H5.7746H7.48921H7.61421V9.56909V8.31327ZM14.3119 8.31327V8.18827H14.1869H12.4723H12.3473V8.31327V9.56909V9.69409H12.4723H14.1869H14.3119V9.56909V8.31327Z" fill="#9698AB" stroke="#9698AB" stroke-width="0.25"/>
</svg>
