<svg width="167" height="28" viewBox="0 0 167 28" fill="none" xmlns="http://www.w3.org/2000/svg">
<path d="M37.728 4.816H40.968V22H37.728V4.816ZM46.9991 11.776H47.1911C47.5591 11.184 48.0551 10.72 48.6791 10.384C49.3031 10.032 50.0151 9.856 50.8151 9.856C51.5511 9.856 52.1991 9.976 52.7591 10.216C53.3191 10.456 53.7751 10.8 54.1271 11.248C54.4951 11.68 54.7671 12.208 54.9431 12.832C55.1351 13.44 55.2311 14.12 55.2311 14.872V22H52.0871V15.256C52.0871 14.408 51.8951 13.784 51.5111 13.384C51.1431 12.968 50.5991 12.76 49.8791 12.76C49.4471 12.76 49.0631 12.856 48.7271 13.048C48.4071 13.224 48.1271 13.472 47.8871 13.792C47.6631 14.096 47.4871 14.464 47.3591 14.896C47.2471 15.312 47.1911 15.76 47.1911 16.24V22H44.0471V10.24H46.9991V11.776ZM62.3672 22.384C61.5992 22.384 60.9112 22.288 60.3032 22.096C59.7112 21.904 59.1912 21.656 58.7432 21.352C58.3112 21.032 57.9432 20.672 57.6392 20.272C57.3352 19.856 57.1032 19.44 56.9432 19.024L59.7512 17.824C60.0232 18.432 60.3832 18.888 60.8312 19.192C61.2952 19.48 61.8072 19.624 62.3672 19.624C62.9432 19.624 63.3992 19.52 63.7352 19.312C64.0712 19.104 64.2392 18.856 64.2392 18.568C64.2392 18.248 64.0952 17.992 63.8072 17.8C63.5352 17.592 63.0552 17.408 62.3672 17.248L60.7112 16.888C60.3432 16.808 59.9592 16.68 59.5592 16.504C59.1752 16.328 58.8232 16.104 58.5032 15.832C58.1832 15.56 57.9192 15.232 57.7112 14.848C57.5032 14.464 57.3992 14.016 57.3992 13.504C57.3992 12.928 57.5192 12.416 57.7592 11.968C58.0152 11.52 58.3592 11.144 58.7912 10.84C59.2232 10.52 59.7272 10.28 60.3032 10.12C60.8952 9.944 61.5272 9.856 62.1992 9.856C63.3192 9.856 64.3192 10.08 65.1992 10.528C66.0792 10.96 66.7272 11.656 67.1432 12.616L64.4312 13.72C64.2072 13.256 63.8792 12.92 63.4472 12.712C63.0152 12.504 62.5832 12.4 62.1512 12.4C61.7032 12.4 61.3112 12.496 60.9752 12.688C60.6392 12.864 60.4712 13.096 60.4712 13.384C60.4712 13.656 60.6072 13.872 60.8792 14.032C61.1672 14.192 61.5512 14.336 62.0312 14.464L63.8312 14.896C65.0312 15.184 65.9192 15.648 66.4952 16.288C67.0872 16.912 67.3832 17.656 67.3832 18.52C67.3832 19.032 67.2632 19.52 67.0232 19.984C66.7832 20.448 66.4392 20.864 65.9912 21.232C65.5592 21.584 65.0312 21.864 64.4072 22.072C63.7992 22.28 63.1192 22.384 62.3672 22.384ZM70.9476 8.536C70.6756 8.536 70.4116 8.488 70.1556 8.392C69.9156 8.28 69.6996 8.136 69.5076 7.96C69.3316 7.768 69.1876 7.552 69.0756 7.312C68.9796 7.072 68.9316 6.808 68.9316 6.52C68.9316 6.232 68.9796 5.968 69.0756 5.728C69.1876 5.488 69.3316 5.28 69.5076 5.104C69.6996 4.912 69.9156 4.768 70.1556 4.672C70.4116 4.56 70.6756 4.504 70.9476 4.504C71.5076 4.504 71.9876 4.704 72.3876 5.104C72.7876 5.488 72.9876 5.96 72.9876 6.52C72.9876 7.08 72.7876 7.56 72.3876 7.96C71.9876 8.344 71.5076 8.536 70.9476 8.536ZM69.3876 22V10.24H72.5316V22H69.3876ZM80.7133 27.568C79.8813 27.568 79.1373 27.456 78.4813 27.232C77.8413 27.024 77.2813 26.744 76.8013 26.392C76.3213 26.056 75.9213 25.68 75.6013 25.264C75.2813 24.848 75.0493 24.432 74.9053 24.016L77.9053 22.816C78.1293 23.44 78.4973 23.92 79.0093 24.256C79.5213 24.608 80.0893 24.784 80.7133 24.784C81.7053 24.784 82.4893 24.472 83.0653 23.848C83.6413 23.24 83.9293 22.384 83.9293 21.28V20.464H83.7373C83.3693 20.976 82.8813 21.384 82.2733 21.688C81.6813 21.976 80.9773 22.12 80.1613 22.12C79.4573 22.12 78.7693 21.976 78.0973 21.688C77.4413 21.4 76.8573 20.992 76.3453 20.464C75.8333 19.92 75.4173 19.272 75.0973 18.52C74.7773 17.768 74.6173 16.928 74.6173 16C74.6173 15.072 74.7773 14.232 75.0973 13.48C75.4173 12.712 75.8333 12.064 76.3453 11.536C76.8573 10.992 77.4413 10.576 78.0973 10.288C78.7693 10 79.4573 9.856 80.1613 9.856C80.9773 9.856 81.6813 10.008 82.2733 10.312C82.8813 10.6 83.3693 11 83.7373 11.512H83.9293V10.24H86.9293V21.16C86.9293 22.152 86.7773 23.04 86.4733 23.824C86.1693 24.624 85.7453 25.296 85.2013 25.84C84.6573 26.4 84.0013 26.824 83.2333 27.112C82.4813 27.416 81.6413 27.568 80.7133 27.568ZM80.8333 19.288C81.2173 19.288 81.5933 19.216 81.9613 19.072C82.3453 18.928 82.6813 18.72 82.9693 18.448C83.2573 18.16 83.4893 17.816 83.6653 17.416C83.8413 17 83.9293 16.528 83.9293 16C83.9293 15.472 83.8413 15 83.6653 14.584C83.4893 14.168 83.2573 13.824 82.9693 13.552C82.6813 13.264 82.3453 13.048 81.9613 12.904C81.5933 12.76 81.2173 12.688 80.8333 12.688C80.4493 12.688 80.0733 12.76 79.7053 12.904C79.3373 13.048 79.0093 13.264 78.7213 13.552C78.4333 13.84 78.2013 14.192 78.0253 14.608C77.8493 15.008 77.7613 15.472 77.7613 16C77.7613 16.528 77.8493 17 78.0253 17.416C78.2013 17.816 78.4333 18.16 78.7213 18.448C79.0093 18.72 79.3373 18.928 79.7053 19.072C80.0733 19.216 80.4493 19.288 80.8333 19.288ZM89.6096 4.816H92.7536V9.64L92.5616 11.776H92.7536C93.0896 11.216 93.5696 10.76 94.1936 10.408C94.8336 10.04 95.5456 9.856 96.3296 9.856C97.8496 9.856 98.9696 10.304 99.6896 11.2C100.426 12.096 100.794 13.32 100.794 14.872V22H97.6496V15.256C97.6496 14.44 97.4576 13.824 97.0736 13.408C96.6896 12.976 96.1536 12.76 95.4656 12.76C95.0336 12.76 94.6496 12.856 94.3136 13.048C93.9776 13.224 93.6896 13.472 93.4496 13.792C93.2256 14.112 93.0496 14.488 92.9216 14.92C92.8096 15.336 92.7536 15.784 92.7536 16.264V22H89.6096V4.816ZM104.078 12.928H102.014V10.24H104.078V6.64H107.222V10.24H110.102V12.928H107.222V17.488C107.222 17.76 107.246 18.016 107.294 18.256C107.358 18.48 107.47 18.672 107.63 18.832C107.854 19.088 108.174 19.216 108.59 19.216C108.862 19.216 109.078 19.192 109.238 19.144C109.398 19.08 109.55 19 109.694 18.904L110.582 21.664C110.214 21.84 109.814 21.968 109.382 22.048C108.966 22.144 108.502 22.192 107.99 22.192C107.398 22.192 106.862 22.104 106.382 21.928C105.918 21.736 105.526 21.48 105.206 21.16C104.454 20.44 104.078 19.416 104.078 18.088V12.928ZM112.798 4.816H118.606C119.966 4.816 121.19 5.024 122.278 5.44C123.366 5.856 124.294 6.448 125.062 7.216C125.83 7.968 126.414 8.872 126.814 9.928C127.23 10.984 127.438 12.144 127.438 13.408C127.438 14.688 127.23 15.856 126.814 16.912C126.414 17.968 125.83 18.872 125.062 19.624C124.294 20.376 123.366 20.96 122.278 21.376C121.19 21.792 119.966 22 118.606 22H112.798V4.816ZM118.462 18.928C119.406 18.928 120.238 18.8 120.958 18.544C121.678 18.272 122.278 17.896 122.758 17.416C123.238 16.936 123.598 16.36 123.838 15.688C124.078 15 124.198 14.24 124.198 13.408C124.198 12.576 124.078 11.824 123.838 11.152C123.598 10.464 123.238 9.88 122.758 9.4C122.278 8.92 121.678 8.552 120.958 8.296C120.238 8.024 119.406 7.888 118.462 7.888H116.038V18.928H118.462ZM136.912 20.752H136.72C136.352 21.2 135.904 21.584 135.376 21.904C134.864 22.224 134.2 22.384 133.384 22.384C132.776 22.384 132.2 22.28 131.656 22.072C131.128 21.88 130.664 21.608 130.264 21.256C129.864 20.904 129.552 20.48 129.328 19.984C129.104 19.488 128.992 18.944 128.992 18.352C128.992 17.744 129.112 17.2 129.352 16.72C129.592 16.224 129.928 15.8 130.36 15.448C130.792 15.096 131.296 14.832 131.872 14.656C132.464 14.464 133.104 14.368 133.792 14.368C134.56 14.368 135.192 14.432 135.688 14.56C136.184 14.672 136.592 14.792 136.912 14.92V14.56C136.912 13.936 136.664 13.424 136.168 13.024C135.672 12.608 135.056 12.4 134.32 12.4C133.232 12.4 132.312 12.856 131.56 13.768L129.28 12.208C130.528 10.64 132.232 9.856 134.392 9.856C136.216 9.856 137.608 10.288 138.568 11.152C139.528 12 140.008 13.264 140.008 14.944V22H136.912V20.752ZM136.912 17.224C136.544 17.048 136.16 16.912 135.76 16.816C135.376 16.704 134.952 16.648 134.488 16.648C133.736 16.648 133.152 16.816 132.736 17.152C132.336 17.472 132.136 17.872 132.136 18.352C132.136 18.832 132.328 19.216 132.712 19.504C133.112 19.792 133.568 19.936 134.08 19.936C134.496 19.936 134.88 19.864 135.232 19.72C135.584 19.56 135.88 19.36 136.12 19.12C136.376 18.864 136.568 18.576 136.696 18.256C136.84 17.92 136.912 17.576 136.912 17.224ZM147.047 22.384C146.279 22.384 145.591 22.288 144.983 22.096C144.391 21.904 143.871 21.656 143.423 21.352C142.991 21.032 142.623 20.672 142.319 20.272C142.015 19.856 141.783 19.44 141.623 19.024L144.431 17.824C144.703 18.432 145.063 18.888 145.511 19.192C145.975 19.48 146.487 19.624 147.047 19.624C147.623 19.624 148.079 19.52 148.415 19.312C148.751 19.104 148.919 18.856 148.919 18.568C148.919 18.248 148.775 17.992 148.487 17.8C148.215 17.592 147.735 17.408 147.047 17.248L145.391 16.888C145.023 16.808 144.639 16.68 144.239 16.504C143.855 16.328 143.503 16.104 143.183 15.832C142.863 15.56 142.599 15.232 142.391 14.848C142.183 14.464 142.079 14.016 142.079 13.504C142.079 12.928 142.199 12.416 142.439 11.968C142.695 11.52 143.039 11.144 143.471 10.84C143.903 10.52 144.407 10.28 144.983 10.12C145.575 9.944 146.207 9.856 146.879 9.856C147.999 9.856 148.999 10.08 149.879 10.528C150.759 10.96 151.407 11.656 151.823 12.616L149.111 13.72C148.887 13.256 148.559 12.92 148.127 12.712C147.695 12.504 147.263 12.4 146.831 12.4C146.383 12.4 145.991 12.496 145.655 12.688C145.319 12.864 145.151 13.096 145.151 13.384C145.151 13.656 145.287 13.872 145.559 14.032C145.847 14.192 146.231 14.336 146.711 14.464L148.511 14.896C149.711 15.184 150.599 15.648 151.175 16.288C151.767 16.912 152.063 17.656 152.063 18.52C152.063 19.032 151.943 19.52 151.703 19.984C151.463 20.448 151.119 20.864 150.671 21.232C150.239 21.584 149.711 21.864 149.087 22.072C148.479 22.28 147.799 22.384 147.047 22.384ZM153.992 4.816H157.136V9.64L156.944 11.776H157.136C157.472 11.216 157.952 10.76 158.576 10.408C159.216 10.04 159.928 9.856 160.712 9.856C162.232 9.856 163.352 10.304 164.072 11.2C164.808 12.096 165.176 13.32 165.176 14.872V22H162.032V15.256C162.032 14.44 161.84 13.824 161.456 13.408C161.072 12.976 160.536 12.76 159.848 12.76C159.416 12.76 159.032 12.856 158.696 13.048C158.36 13.224 158.072 13.472 157.832 13.792C157.608 14.112 157.432 14.488 157.304 14.92C157.192 15.336 157.136 15.784 157.136 16.264V22H153.992V4.816Z" fill="#000"/>
<rect width="26" height="26" rx="5" fill="#51459E"/>
<path d="M18.3185 18.3181H21.0004C23.7618 18.3181 26.0004 20.5567 26.0004 23.3181V26H23.3185C20.5571 26 18.3185 23.7614 18.3185 21V18.3181Z" fill="white"/>
<circle cx="12.9996" cy="13" r="5.31818" fill="white"/>
</svg>
