<svg width="25" height="24" viewBox="0 0 25 24" fill="none" xmlns="http://www.w3.org/2000/svg">
<g id="message" opacity="0.6">
<path id="Rectangle 192 (Stroke)" fill-rule="evenodd" clip-rule="evenodd" d="M8.03801 17.8476C8.30759 17.623 8.64739 17.5 8.99829 17.5H19.9983C20.8267 17.5 21.4983 16.8284 21.4983 16V5.99997C21.4983 5.17154 20.8267 4.49997 19.9983 4.49997H5.99829C5.16986 4.49997 4.49829 5.17154 4.49829 5.99997V19.7299C4.49829 20.1538 4.99272 20.3854 5.31838 20.114L8.03801 17.8476ZM8.99829 19H19.9983C21.6551 19 22.9983 17.6568 22.9983 16V5.99997C22.9983 4.34312 21.6551 2.99997 19.9983 2.99997H5.99829C4.34144 2.99997 2.99829 4.34312 2.99829 5.99997V19.7299C2.99829 21.4256 4.976 22.3519 6.27866 21.2663L8.99829 19Z" fill="black"/>
<path id="Vector 409 (Stroke)" fill-rule="evenodd" clip-rule="evenodd" d="M8.24829 8.99997C8.24829 8.58576 8.58408 8.24997 8.99829 8.24997H16.9983C17.4125 8.24997 17.7483 8.58576 17.7483 8.99997C17.7483 9.41418 17.4125 9.74997 16.9983 9.74997H8.99829C8.58408 9.74997 8.24829 9.41418 8.24829 8.99997Z" fill="black"/>
<path id="Vector 410 (Stroke)" fill-rule="evenodd" clip-rule="evenodd" d="M8.24829 13C8.24829 12.5858 8.58408 12.25 8.99829 12.25H12.9983C13.4125 12.25 13.7483 12.5858 13.7483 13C13.7483 13.4142 13.4125 13.75 12.9983 13.75H8.99829C8.58408 13.75 8.24829 13.4142 8.24829 13Z" fill="black"/>
</g>
</svg>
