<svg width="25" height="24" viewBox="0 0 25 24" fill="none" xmlns="http://www.w3.org/2000/svg">
<g id="notification">
<path id="Union" fill-rule="evenodd" clip-rule="evenodd" d="M16.9983 17.9999H21.5841C22.3651 17.9999 22.9983 17.3668 22.9983 16.5857C22.9983 16.2107 22.8493 15.8509 22.5841 15.5857L21.5841 14.5857C21.209 14.2107 20.9983 13.7019 20.9983 13.1715L20.9983 9.97061C20.9983 5.56853 17.4297 1.99994 13.0276 1.99994C8.61618 1.99994 5.04372 5.58313 5.05697 9.99454L5.06643 13.1476C5.06806 13.6921 4.84757 14.2138 4.45588 14.5921L3.42693 15.5859C3.153 15.8505 2.99829 16.215 2.99829 16.5959C2.99829 17.3713 3.62692 17.9999 4.40237 17.9999H8.99829C8.99829 20.2091 10.7892 21.9999 12.9983 21.9999C15.2074 21.9999 16.9983 20.2091 16.9983 17.9999ZM20.5234 15.6464L21.377 16.4999H4.63976L5.49796 15.671C6.18343 15.009 6.56928 14.096 6.56642 13.1431L6.55696 9.99004C6.54621 6.40881 9.44636 3.49994 13.0276 3.49994C16.6013 3.49994 19.4983 6.39696 19.4983 9.97061L19.4983 13.1715C19.4983 14.0998 19.867 14.99 20.5234 15.6464ZM15.4983 17.9999H10.4983C10.4983 19.3807 11.6176 20.4999 12.9983 20.4999C14.379 20.4999 15.4983 19.3807 15.4983 17.9999Z" fill="black"/>
</g>
</svg>
