<svg width="21" height="21" viewBox="0 0 21 21" fill="none" xmlns="http://www.w3.org/2000/svg">
<path id="Vector" d="M10.0275 5.38677H9.90255V5.51177V6.41294C8.53048 6.66343 7.65171 7.59954 7.65171 8.76816C7.65171 9.20181 7.74954 9.55698 7.92234 9.85024C8.09479 10.1429 8.33785 10.3671 8.61837 10.5454L8.68466 10.4411L8.61837 10.5454C9.18187 10.9035 9.9127 11.0852 10.5762 11.2495C10.5764 11.2496 10.5766 11.2496 10.5768 11.2497L10.6033 11.2565C11.0921 11.3833 11.5425 11.5008 11.8718 11.6751C12.2011 11.8495 12.3999 12.0755 12.3999 12.4178C12.3999 12.6738 12.2895 12.9396 12.0369 13.1423C11.7839 13.3454 11.385 13.4872 10.8056 13.4872C9.72861 13.4872 8.8852 13.0092 8.32811 12.4476L8.22432 12.343L8.13803 12.4625L7.44394 13.4234L7.38252 13.5085L7.45562 13.5837C8.03789 14.1831 8.8463 14.6266 9.90255 14.7803V15.8184V15.9434H10.0275H11.3249H11.4499V15.8184V14.7956C12.3019 14.6842 12.9212 14.367 13.3289 13.9234L13.3289 13.9234C13.7424 13.4735 13.935 12.8971 13.935 12.2835C13.935 11.8375 13.8349 11.4718 13.6586 11.1693C13.4826 10.8674 13.2348 10.6351 12.9488 10.4499L12.8833 10.551L12.9488 10.4499C12.3745 10.0779 11.632 9.88725 10.9623 9.71678L10.9619 9.71668L10.9428 9.71189C10.9428 9.71187 10.9427 9.71186 10.9426 9.71184C10.4645 9.59072 10.0267 9.47929 9.7076 9.32108L9.70759 9.32108C9.38727 9.16231 9.1991 8.96305 9.1991 8.67049C9.1991 8.37891 9.32676 8.13779 9.55615 7.9683C9.78663 7.79802 10.122 7.69871 10.5371 7.69871C11.3533 7.69871 12.179 7.96895 12.7981 8.55078L12.8986 8.64523L12.9827 8.53597L13.6973 7.60812L13.7667 7.51792L13.6834 7.44035C13.0912 6.88917 12.3426 6.53256 11.4499 6.40223V5.51177V5.38677H11.3249H10.0275ZM18.2198 6.98806L18.1203 7.04547L18.1691 7.14942C18.6699 8.21647 18.9498 9.40787 18.9498 10.665C18.9498 15.2406 15.2406 18.9498 10.665 18.9498C6.08943 18.9498 2.38019 15.2406 2.38019 10.665C2.38019 6.08943 6.08943 2.38019 10.665 2.38019C12.6209 2.38019 14.4183 3.05783 15.8355 4.19128H13.8964H13.7714V4.31628V5.57147V5.69647H13.8964H18.1636H18.2886V5.57147V4.64267C18.2892 4.63923 18.2895 4.63666 18.2896 4.63541L18.2896 4.63508C18.2907 4.62562 18.2913 4.61459 18.2917 4.60485C18.2925 4.58401 18.293 4.55487 18.2933 4.52131C18.2938 4.45367 18.2934 4.36275 18.2928 4.27207C18.2921 4.18123 18.291 4.09003 18.2902 4.02158L18.2891 3.93875L18.2887 3.9155L18.2886 3.90935L18.2886 3.90911V1.30425V1.17925H18.1636H16.9084H16.7834V1.30425V3.02195C15.1075 1.67861 12.98 0.875 10.665 0.875C5.25814 0.875 0.875 5.25813 0.875 10.665C0.875 16.0719 5.25814 20.455 10.665 20.455C16.0719 20.455 20.455 16.0719 20.455 10.665C20.455 9.1413 20.1068 7.69849 19.4855 6.41223L19.427 6.29107L19.3105 6.35835L18.2198 6.98806Z" fill="#9698AB" stroke="#9698AB" stroke-width="0.25"/>
</svg>
