<svg width="22" height="24" viewBox="0 0 22 24" fill="none" xmlns="http://www.w3.org/2000/svg">
<g id="Group 1938">
<path id="Rectangle 6471" d="M17 17V22H2V2H17V7" stroke="#9698AB" stroke-width="2.5"/>
<path id="Vector" d="M16.1387 4.875H16.0137V5V6.22792C14.1913 6.54799 13.0316 7.78069 13.0316 9.3143C13.0316 9.88247 13.1597 10.3457 13.3846 10.7273C13.609 11.1083 13.9259 11.401 14.2935 11.6347L14.2935 11.6347C15.0335 12.105 15.9949 12.3444 16.8755 12.5624C16.8758 12.5625 16.876 12.5625 16.8762 12.5626L16.9116 12.5718C17.5578 12.7393 18.1597 12.8961 18.601 13.1298C19.0444 13.3645 19.3223 13.6751 19.3223 14.1496C19.3223 14.5011 19.1706 14.8649 18.8263 15.1412C18.4818 15.4176 17.9435 15.607 17.1695 15.607C15.7299 15.607 14.6026 14.968 13.8583 14.2177L13.7545 14.1131L13.6683 14.2326L12.7487 15.5057L12.6872 15.5908L12.7604 15.666C13.5317 16.46 14.6058 17.0467 16.0137 17.2444V18.655V18.78H16.1387H17.8575H17.9825V18.655V17.2641C19.1222 17.1218 19.9447 16.7022 20.4827 16.1169L20.4827 16.1168C21.0227 15.5293 21.275 14.7759 21.275 13.9716C21.275 13.3871 21.1438 12.9098 20.9143 12.5159C20.6851 12.1226 20.3617 11.8193 19.9869 11.5765L19.9869 11.5765C19.2327 11.0879 18.2559 10.8367 17.3671 10.6105L17.3667 10.6104L17.3413 10.604C17.3413 10.604 17.3412 10.604 17.3412 10.604C16.7091 10.4438 16.1243 10.2952 15.6968 10.0832L15.6968 10.0832C15.267 9.87021 15.0005 9.59551 15.0005 9.1849C15.0005 8.78526 15.1761 8.45386 15.49 8.22193L15.4157 8.1214L15.49 8.22193C15.8043 7.98974 16.2579 7.85681 16.8138 7.85681C17.9038 7.85681 19.0082 8.21769 19.8371 8.99672L19.9376 9.09117L20.0218 8.9819L20.9684 7.75262L21.0379 7.66242L20.9546 7.58485C20.1688 6.85348 19.173 6.38228 17.9825 6.21495V5V4.875H17.8575H16.1387ZM16.043 17.1223L16.0412 17.1356L16.043 17.1223ZM17.9531 6.33705L17.955 6.32378L17.9531 6.33705Z" fill="#5E5E5E" stroke="#5E5E5E" stroke-width="0.25"/>
<path id="Arrow 1" d="M4.5 11.375C4.15482 11.375 3.875 11.6548 3.875 12C3.875 12.3452 4.15482 12.625 4.5 12.625L4.5 11.375ZM12.9419 12.4419C13.186 12.1979 13.186 11.8021 12.9419 11.5581L8.96447 7.58058C8.72039 7.33651 8.32466 7.33651 8.08058 7.58058C7.83651 7.82466 7.83651 8.22039 8.08058 8.46447L11.6161 12L8.08058 15.5355C7.8365 15.7796 7.8365 16.1753 8.08058 16.4194C8.32466 16.6635 8.72039 16.6635 8.96447 16.4194L12.9419 12.4419ZM4.5 12.625L12.5 12.625L12.5 11.375L4.5 11.375L4.5 12.625Z" fill="#5E5E5E"/>
</g>
</svg>
